<svg version="1" xmlns="http://www.w3.org/2000/svg" width="1004" height="1004" viewBox="0 0 753.000000 753.000000"><path d="M373.7 137.6c-.3.3-4.6.7-9.5.9-8.9.3-17.3 1.1-22.2 2.1-1.4.2-3.6.6-5 .9-8.4 1.6-14.1 2.9-18.9 4.2-2.9.8-5.9 1.6-6.5 1.8-.6.1-2.4.7-3.9 1.3-1.6.7-3.1 1.2-3.5 1.2-.4 0-4.5 1.5-9.2 3.4-23.3 9.2-40.9 19.6-62 36.8l-3.5 2.8h-27.6c-26.9 0-31.4.3-30.4 2 .3.5.5 4.4.5 8.7 0 4.3 0 9.4.1 11.3.1 1.9.1 4.1 0 4.7-.1.7-.1 1.9-.2 2.5-.1 1-.1 21.3 0 31.3.2 12.6-.2 20-.9 21.3-1 1.9-2.2 5.1-2.5 6.8-.2.6-1 2.7-1.8 4.5-1.4 3.2-6.2 19.7-7.2 24.7-.2 1.3-.6 3.1-.9 4-.5 1.8-1.5 7.6-2.1 12.7-.3 1.6-.7 5-1.1 7.5-1 6.1-1.1 42.1-.2 49 1.5 10.6 1.8 12.5 2.4 15 .4 1.4.6 2.9.5 3.4-.1.4 1 5.4 2.4 11 4.4 17.1 9 29.4 17.1 45.9l5.3 10.8-4.7-.7c-2.6-.4-5.6-.8-6.7-1-1.1-.2-4.2-.7-7-1-2.7-.3-6.3-.7-8-.9-9-1.2-27.4-1.9-46-1.8H89.4l-7.9 4.7c-4.4 2.6-8.9 5.3-10 5.9-9.8 5.9-12.4 7.4-15 8.7-1.6.8-3.6 2.1-4.3 2.7-.7.7-2 1.3-2.7 1.3-.8 0-1.9.8-2.4 1.7-.6 1-1.1 1.4-1.1.9 0-.5-.6-.3-1.4.3-1.6 1.3-1.2 3.2 5.5 24.1 1.8 5.8 3.4 10.7 3.4 11 .9 3.5 2.3 8.1 4.7 16 1.6 5.2 3.1 10 3.3 10.7.3.8 3.8.2 11.7-1.9 6.2-1.6 12.2-3.1 13.3-3.4 15-3.1 16.6-3.4 20.5-4 1.9-.3 6-.9 9-1.4 3-.5 8.2-1.2 11.5-1.5 3.3-.4 7.4-.8 9-1 18.6-2.4 69.2-2.4 81.4 0 1.3.2 5 .7 8.4 1.1 7.4.8 8.2.9 12.7 1.8 1.9.3 4.6.8 6 1 5 .8 10.9 2.7 11.6 3.7.3.6 1.6 1.5 2.7 2 1.2.5 3.8 1.9 5.7 3 5.6 3.4 24.1 12.5 28.5 14 2.2.8 4.3 1.8 4.7 2.4.4.5.8.7.8.2 0-.4 1.7 0 3.8.9 2 .8 4.8 1.8 6.1 2 1.3.3 3.2.9 4.3 1.5 1 .5 1.8.7 1.8.5 0-.3 1.8.1 4 .9s4 1.2 4 1c0-.3 1.1 0 2.5.5 1.3.5 6.3 1.6 11 2.4 9.7 1.7 16.3 5 14.5 7.2-1.4 1.6-2.1 8.4-.9 8.4.5 0 .9.6.9 1.3 0 1.6 4.2 5.7 5.8 5.7.7 0 1.2.4 1.2.9 0 1.5 10.2 3.5 17.9 3.4 8.1-.1 19.1-2.1 19.1-3.4 0-.5.6-.9 1.3-.9.7 0 2.5-1.3 4-2.8 2.9-3 4.7-10.5 2.8-11.7-3.7-2.2 2.6-6.7 11.1-7.9 3.7-.6 16.7-3.5 26.3-6 .6-.2 2.3-.8 3.8-1.4 1.6-.7 3.1-1.2 3.5-1.2 3.7 0 30.5-12.5 42.6-19.9 3.6-2.1 7.8-4.2 9.3-4.5 10.3-2.3 18-3.7 19-3.5.4.1 1 0 1.3-.1 2.1-.8 18.4-2.6 31-3.5 8-.5 40.4-.6 48 0 7.4.5 18 1.4 22.5 1.9 11.6 1.3 14.3 1.7 16.5 2 2.3.4 7.3 1.3 12.5 2.1 1.7.3 11.5 2.3 19.5 4 1.4.3 3.3.8 4.2 1.1 1 .3 3 .7 4.4 1 1.5.3 3.4.9 4.3 1.3.9.5 2.9 1.1 4.5 1.2 2.7.4 2.9.1 4.8-6.1 1-3.6 3.5-11.7 5.5-18 2-6.3 3.8-12 3.9-12.5.1-.6 1.8-6.3 3.8-12.9 2-6.5 3.6-12.2 3.6-12.6 0-.4-.8-1-1.7-1.4-1-.3-3.4-1.5-5.3-2.7-16.1-9.7-19.9-11.9-20.9-11.9-.6 0-1.1-.5-1.1-1 0-.6-.7-1-1.5-1s-1.5-.5-1.5-1c0-.6-.4-1-1-1-.5 0-3.3-1.4-6.2-3.1l-5.3-3.2h-21c-18.9-.1-40.4.7-46.6 1.8-1.3.2-4.9.6-7.9.9-3 .4-6.4.8-7.5 1-6 1.1-11.6 1.6-11.3.9.2-.4 2.3-4.6 4.8-9.3 2.4-4.7 4.4-8.7 4.5-9 0-.3 1.5-3.9 3.2-8 3.7-9 9.5-27.3 9.2-29.2-.2-.7.3-3.8.9-6.8.7-3 1.4-6.6 1.7-8 .3-1.4.7-3.6 1-5 3.5-18.4 3.6-54.6.1-71.7-.3-1.5-.8-4.4-1.1-6.3-.3-1.9-.8-4.3-1.1-5.2-.3-.9-.7-2.5-.9-3.7-.7-3.9-3.8-14.6-4.7-16.4-.5-1-1.1-2.6-1.3-3.5-.6-2.8-5.6-15.6-6.6-16.8-.5-.6-.6-1.4-.3-1.7.7-.7.9-15.5.3-16.2-.3-.2-.2-3.1.1-6.5.3-3.3.2-6-.3-6-.4 0-.5-.5-.2-1 .4-.6.6-3.2.6-5.8-.1-2.6-.1-5.6-.1-6.7 0-1.7-.1-5.9-.1-11 0-.6.1-3.3.2-6.2.2-2.9.1-5.5-.2-5.8-.3-.2-.3-2.7.1-5.5l.6-5h-58.1l-3.5-2.8c-8-6.5-16.6-12.9-18.2-13.5-1-.3-1.8-1.1-1.8-1.7 0-.5-.6-1-1.4-1-.8 0-2.1-.6-2.8-1.3-6.6-6.4-44.6-23.3-61.3-27.3-3.3-.8-6.9-1.6-8-1.9-2.8-.7-12.3-2.4-16.5-3-1.9-.2-4.6-.7-5.9-.9-1.3-.3-8.1-.8-15-1.2-6.9-.3-12.9-.8-13.2-1-.3-.2-.9-.1-1.2.2z"/></svg>